<svg width="41" height="35" fill="none" xmlns="http://www.w3.org/2000/svg"><path d="M10.865.193C9.998 1.54 8.778 3.805 8.874 3.9c.064.065 4.527.145 9.906.16 8.927.033 9.777.05 9.826.29.032.16-.257.755-.61 1.349-.37.61-.739 1.252-.82 1.428-.096.193-.256.514-.384.723-.113.225-.177.466-.145.53.128.208 9.216.144 9.216-.064 0-.097-.21-.53-.482-.964-.273-.417-.482-.835-.482-.915 0-.064-.209-.433-.481-.787-.257-.369-.482-.722-.482-.77 0-.064-.305-.626-.69-1.253a28.715 28.715 0 0 1-.803-1.38 7.62 7.62 0 0 0-.434-.723c-.176-.273-.401-.658-.481-.883-.097-.209-.273-.45-.37-.514C31.046.064 26.47 0 20.98 0 13.16 0 10.96.048 10.865.193ZM5.904 8.878c-.129.08-.305.29-.402.482-.08.193-.208.466-.305.594-.45.69-1.605 2.697-1.605 2.794 0 .064-.129.305-.305.546-.16.24-.707 1.155-1.22 2.039-.514.883-.996 1.621-1.076 1.653-.225.097-.144.578.225 1.156.674 1.06.754 1.204.915 1.558.289.642.98 1.653 1.124 1.653.08 0 .32-.353.546-.77.786-1.494 2.68-4.785 3.179-5.523.176-.241.305-.482.305-.53 0-.048.545-.996 1.204-2.103.658-1.108 1.204-2.055 1.204-2.12 0-.048.192-.369.417-.706.241-.337.386-.674.321-.739-.176-.16-4.238-.144-4.527.016Zm10.725-.048c-.723.08-.723.08-1.494 1.606-.192.401-.594 1.075-.867 1.525a28.586 28.586 0 0 0-1.043 1.766c-.289.53-.61 1.076-.707 1.204-.096.129-.32.498-.497.803a137.686 137.686 0 0 1-1.365 2.408c-.578.98-.995 1.702-2.858 4.945l-1.83 3.163.289.562c.16.305.594 1.06.963 1.686.354.61.707 1.284.771 1.477.064.208.177.369.24.369.065 0 .274.305.482.674.193.386.498.9.675 1.172.16.257.401.69.53.964.128.256.45.786.722 1.172l.498.674h19.924l.273-.482c.145-.257.321-.481.401-.481.065 0 .113-.08.113-.177 0-.096.24-.594.546-1.092.289-.497.738-1.268.979-1.701.24-.45.931-1.638 1.525-2.65 3.66-6.245 3.597-6.117 3.356-6.277-.129-.08-.434-.113-.69-.064-.258.048-1.205.08-2.104.08h-1.654l-.995 1.718c-.546.963-1.605 2.761-2.344 4.014-.738 1.252-1.349 2.344-1.349 2.44 0 .482-.738.53-8.236.514-4.158-.016-7.562-.032-7.578-.064-.417-.53-2.488-4.271-2.488-4.464 0-.16.32-.835.722-1.477.402-.658.723-1.252.723-1.3 0-.064.176-.354.401-.642.225-.29.401-.578.401-.643 0-.064.37-.722.803-1.477.45-.754.803-1.38.803-1.413 0-.064 1.83-3.195 2.488-4.238.241-.37.61-1.012.82-1.429.224-.418.77-1.349 1.203-2.087.434-.739.787-1.38.787-1.445 0-.048.193-.337.418-.642.224-.305.369-.594.32-.659-.128-.128-3.098-.144-4.077-.032Z" fill="#fff"/><path d="M23.516 13.63c-.224.257-.594.82-.818 1.237-.53 1.043-1.012 1.91-4.994 8.766-.353.578-.626 1.124-.626 1.188 0 .064-.16.289-.337.482-.433.465-.305.947.225.802.192-.048 2.344-.096 4.784-.096h4.415l.354-.69c.45-.867 1.011-1.847 1.38-2.392.498-.755.354-.82-2.007-.835-2.103-.016-2.15-.016-2.2-.37-.031-.224.274-.915.788-1.766.465-.77.979-1.67 1.14-2.007l.288-.61h7.546c4.737 0 7.546-.064 7.546-.16 0-.177-1.862-3.34-2.215-3.741-.225-.257-.755-.273-7.546-.273l-7.305.016-.418.45Z" fill="#fff"/></svg>