<svg width="40" height="40" viewBox="0 0 40 40" fill="none" xmlns="http://www.w3.org/2000/svg">
<path d="M39.1475 30.9141L29.999 21.7656C28.1943 19.9609 25.499 19.6094 23.3272 20.6797L14.999 12.3516V7.5L4.99904 0L-0.000963271 5L7.49904 15H12.3506L20.6787 23.3281C19.6162 25.5 19.96 28.1953 21.7647 30L30.9131 39.1484C32.0537 40.2891 33.8975 40.2891 35.0303 39.1484L39.1475 35.0312C40.2803 33.8906 40.2803 32.0469 39.1475 30.9141ZM25.9131 17.5781C28.124 17.5781 30.2022 18.4375 31.7647 20L33.2803 21.5156C34.5147 20.9766 35.6865 20.2266 36.7022 19.2109C39.6006 16.3125 40.585 12.2344 39.6631 8.53125C39.4912 7.82812 38.6084 7.58594 38.0928 8.10156L32.2803 13.9141L26.9756 13.0312L26.0928 7.72656L31.9053 1.91406C32.4209 1.39844 32.1709 0.515625 31.46 0.335938C27.7568 -0.578125 23.6787 0.40625 20.7881 3.29688C18.5615 5.52344 17.5147 8.46094 17.5693 11.3906L23.9834 17.8047C24.6162 17.6562 25.2725 17.5781 25.9131 17.5781ZM17.7959 23.9844L13.3662 19.5547L1.45997 31.4688C-0.493151 33.4219 -0.493151 36.5859 1.45997 38.5391C3.4131 40.4922 6.57716 40.4922 8.53029 38.5391L18.1865 28.8828C17.5928 27.3281 17.4131 25.6328 17.7959 23.9844ZM4.99904 36.875C3.96779 36.875 3.12404 36.0312 3.12404 35C3.12404 33.9609 3.95997 33.125 4.99904 33.125C6.0381 33.125 6.87404 33.9609 6.87404 35C6.87404 36.0312 6.0381 36.875 4.99904 36.875Z" fill="#909090"/>
</svg>
