<svg xmlns="http://www.w3.org/2000/svg" xmlns:xlink="http://www.w3.org/1999/xlink" xmlns:xodm="http://www.corel.com/coreldraw/odm/2003"><defs><style type="text/css">
   <![CDATA[
    .fil1 {fill:#000;fill-rule:nonzero}
   ]]>
  </style><linearGradient gradientUnits="userSpaceOnUse" id="id0" x1="67.83" x2="474.19" y1="82.42" y2="389.98"><stop offset="0" style="stop-opacity:1; stop-color:#28AAE0"/><stop offset="1" style="stop-opacity:1; stop-color:#23B7EC"/></linearGradient></defs><symbol id="footer-arrow" viewBox="0 0 15 15">
<path d="M3.12497 5.3125V8.125L7.49997 5L11.875 8.125V5.3125L7.49997 2.1875L3.12497 5.3125Z" fill="currentColor"/>
<path d="M3.12497 9.6875V12.5L7.49997 9.375L11.875 12.5V9.6875L7.49997 6.5625L3.12497 9.6875Z" fill="currentColor"/>
</symbol><symbol id="github" viewBox="0 0 26 25">
<path d="M12.8414 1.07431e-06C5.74649 -0.00286787 0 5.74076 0 12.8299C0 18.4359 3.59479 23.2012 8.60109 24.9512C9.2753 25.1205 9.17201 24.6414 9.17201 24.3143V22.0909C5.27886 22.5471 5.12106 19.9707 4.85999 19.5404C4.33211 18.6395 3.08411 18.41 3.45708 17.9797C4.34358 17.5235 5.2473 18.0944 6.29446 19.6408C7.05186 20.7626 8.52937 20.5732 9.27816 20.3867C9.44169 19.7125 9.79171 19.1101 10.2737 18.6424C6.23995 17.9194 4.55875 15.4579 4.55875 12.5316C4.55875 11.1114 5.02639 9.80606 5.94445 8.75316C5.35919 7.01744 5.99896 5.53133 6.08503 5.31042C7.75189 5.16124 9.48473 6.5039 9.61957 6.61005C10.5663 6.35472 11.6479 6.21988 12.8586 6.21988C14.075 6.21988 15.1595 6.36046 16.1149 6.61866C16.439 6.37193 18.0457 5.21861 19.5949 5.35919C19.6781 5.5801 20.3035 7.03179 19.7527 8.74455C20.6822 9.80032 21.1556 11.1172 21.1556 12.5402C21.1556 15.4722 19.4629 17.9367 15.4177 18.6482C15.7642 18.9889 16.0393 19.3953 16.227 19.8435C16.4147 20.2918 16.5111 20.7729 16.5108 21.2589V24.4865C16.5337 24.7447 16.5108 25 16.9411 25C22.022 23.2872 25.6799 18.4875 25.6799 12.8328C25.6799 5.74076 19.9306 1.07431e-06 12.8414 1.07431e-06Z" fill="currentColor"/>
</symbol><symbol id="linkedin" viewBox="0 0 128 128"><path d="M116 3H12a8.91 8.91 0 00-9 8.8v104.42a8.91 8.91 0 009 8.78h104a8.93 8.93 0 009-8.81V11.77A8.93 8.93 0 00116 3zM39.17 107H21.06V48.73h18.11zm-9-66.21a10.5 10.5 0 1110.49-10.5 10.5 10.5 0 01-10.54 10.48zM107 107H88.89V78.65c0-6.75-.12-15.44-9.41-15.44s-10.87 7.36-10.87 15V107H50.53V48.73h17.36v8h.24c2.42-4.58 8.32-9.41 17.13-9.41C103.6 47.28 107 59.35 107 75z" fill="currentColor"/></symbol><symbol id="logo"><path d="M10.865.193C9.998 1.54 8.778 3.805 8.874 3.9c.064.065 4.527.145 9.906.16 8.927.033 9.777.05 9.826.29.032.16-.257.755-.61 1.349-.37.61-.739 1.252-.82 1.428-.096.193-.256.514-.384.723-.113.225-.177.466-.145.53.128.208 9.216.144 9.216-.064 0-.097-.21-.53-.482-.964-.273-.417-.482-.835-.482-.915 0-.064-.209-.433-.481-.787-.257-.369-.482-.722-.482-.77 0-.064-.305-.626-.69-1.253a28.715 28.715 0 0 1-.803-1.38 7.62 7.62 0 0 0-.434-.723c-.176-.273-.401-.658-.481-.883-.097-.209-.273-.45-.37-.514C31.046.064 26.47 0 20.98 0 13.16 0 10.96.048 10.865.193ZM5.904 8.878c-.129.08-.305.29-.402.482-.08.193-.208.466-.305.594-.45.69-1.605 2.697-1.605 2.794 0 .064-.129.305-.305.546-.16.24-.707 1.155-1.22 2.039-.514.883-.996 1.621-1.076 1.653-.225.097-.144.578.225 1.156.674 1.06.754 1.204.915 1.558.289.642.98 1.653 1.124 1.653.08 0 .32-.353.546-.77.786-1.494 2.68-4.785 3.179-5.523.176-.241.305-.482.305-.53 0-.048.545-.996 1.204-2.103.658-1.108 1.204-2.055 1.204-2.12 0-.048.192-.369.417-.706.241-.337.386-.674.321-.739-.176-.16-4.238-.144-4.527.016Zm10.725-.048c-.723.08-.723.08-1.494 1.606-.192.401-.594 1.075-.867 1.525a28.586 28.586 0 0 0-1.043 1.766c-.289.53-.61 1.076-.707 1.204-.096.129-.32.498-.497.803a137.686 137.686 0 0 1-1.365 2.408c-.578.98-.995 1.702-2.858 4.945l-1.83 3.163.289.562c.16.305.594 1.06.963 1.686.354.61.707 1.284.771 1.477.064.208.177.369.24.369.065 0 .274.305.482.674.193.386.498.9.675 1.172.16.257.401.69.53.964.128.256.45.786.722 1.172l.498.674h19.924l.273-.482c.145-.257.321-.481.401-.481.065 0 .113-.08.113-.177 0-.096.24-.594.546-1.092.289-.497.738-1.268.979-1.701.24-.45.931-1.638 1.525-2.65 3.66-6.245 3.597-6.117 3.356-6.277-.129-.08-.434-.113-.69-.064-.258.048-1.205.08-2.104.08h-1.654l-.995 1.718c-.546.963-1.605 2.761-2.344 4.014-.738 1.252-1.349 2.344-1.349 2.44 0 .482-.738.53-8.236.514-4.158-.016-7.562-.032-7.578-.064-.417-.53-2.488-4.271-2.488-4.464 0-.16.32-.835.722-1.477.402-.658.723-1.252.723-1.3 0-.064.176-.354.401-.642.225-.29.401-.578.401-.643 0-.064.37-.722.803-1.477.45-.754.803-1.38.803-1.413 0-.064 1.83-3.195 2.488-4.238.241-.37.61-1.012.82-1.429.224-.418.77-1.349 1.203-2.087.434-.739.787-1.38.787-1.445 0-.048.193-.337.418-.642.224-.305.369-.594.32-.659-.128-.128-3.098-.144-4.077-.032Z" fill="#currentColor"/><path d="M23.516 13.63c-.224.257-.594.82-.818 1.237-.53 1.043-1.012 1.91-4.994 8.766-.353.578-.626 1.124-.626 1.188 0 .064-.16.289-.337.482-.433.465-.305.947.225.802.192-.048 2.344-.096 4.784-.096h4.415l.354-.69c.45-.867 1.011-1.847 1.38-2.392.498-.755.354-.82-2.007-.835-2.103-.016-2.15-.016-2.2-.37-.031-.224.274-.915.788-1.766.465-.77.979-1.67 1.14-2.007l.288-.61h7.546c4.737 0 7.546-.064 7.546-.16 0-.177-1.862-3.34-2.215-3.741-.225-.257-.755-.273-7.546-.273l-7.305.016-.418.45Z" fill="#currentColor"/></symbol><symbol id="mail-top" viewBox="0 0 23 18">
<path d="M20.6429 1H2.35714C1.72596 1 1.21429 1.51167 1.21429 2.14286V15.8571C1.21429 16.4883 1.72596 17 2.35714 17H20.6429C21.274 17 21.7857 16.4883 21.7857 15.8571V2.14286C21.7857 1.51167 21.274 1 20.6429 1Z" stroke="currentColor" stroke-width="2" stroke-linecap="round"/>
<path d="M1.21429 2.71436L11.5 9.00007L21.7857 2.71436" stroke="currentColor" stroke-width="2" stroke-linecap="round"/>
</symbol><symbol id="mail" viewBox="0 0 128 128">
<g><circle cx="64" cy="64" r="64" fill="currentColor"/></g><g><g><path d="M64,28" fill="#1a1a1a"/></g></g><g><g><path d="M64,72.4l38.2-32.7c-0.6-0.4-1.4-0.7-2.2-0.7H28c-0.8,0-1.6,0.3-2.2,0.7L64,72.4z" fill="#1a1a1a"/></g><g><path d="M66.6,75.4c-1.5,1.3-3.7,1.3-5.2,0L24,43.5V85c0,2.2,1.8,4,4,4h72c2.2,0,4-1.8,4-4V43.4L66.6,75.4z" fill="#1a1a1a"/></g></g></symbol><symbol id="telegram" viewBox="0 0 512 512"><g id="Layer_x0020_1"><g id="_1726092097792"><path class="fil0" d="M256 0c141.39,0 256,114.61 256,256 0,141.39 -114.61,256 -256,256 -141.39,0 -256,-114.61 -256,-256 0,-141.39 114.61,-256 256,-256z" fill="currentColor"/><path class="fil1" d="M371.22 163.51l-36.45 183.75c0,0 -5.1,12.74 -19.11,6.63l-84.1 -64.48 -0.39 -0.19c11.36,-10.2 99.45,-89.4 103.3,-92.99 5.96,-5.56 2.26,-8.87 -4.66,-4.67l-130.12 82.63 -50.2 -16.89c0,0 -7.9,-2.81 -8.66,-8.92 -0.77,-6.12 8.92,-9.43 8.92,-9.43l204.65 -80.28c0,0 16.82,-7.39 16.82,4.84z"/></g></g></symbol></svg>