<svg xmlns="http://www.w3.org/2000/svg" xmlns:xlink="http://www.w3.org/1999/xlink"><symbol id="footer-arrow" viewBox="0 0 15 15">
<path d="M3.12497 5.3125V8.125L7.49997 5L11.875 8.125V5.3125L7.49997 2.1875L3.12497 5.3125Z" fill="currentColor"/>
<path d="M3.12497 9.6875V12.5L7.49997 9.375L11.875 12.5V9.6875L7.49997 6.5625L3.12497 9.6875Z" fill="currentColor"/>
</symbol><symbol id="github" viewBox="0 0 26 25">
<path d="M12.8414 1.07431e-06C5.74649 -0.00286787 0 5.74076 0 12.8299C0 18.4359 3.59479 23.2012 8.60109 24.9512C9.2753 25.1205 9.17201 24.6414 9.17201 24.3143V22.0909C5.27886 22.5471 5.12106 19.9707 4.85999 19.5404C4.33211 18.6395 3.08411 18.41 3.45708 17.9797C4.34358 17.5235 5.2473 18.0944 6.29446 19.6408C7.05186 20.7626 8.52937 20.5732 9.27816 20.3867C9.44169 19.7125 9.79171 19.1101 10.2737 18.6424C6.23995 17.9194 4.55875 15.4579 4.55875 12.5316C4.55875 11.1114 5.02639 9.80606 5.94445 8.75316C5.35919 7.01744 5.99896 5.53133 6.08503 5.31042C7.75189 5.16124 9.48473 6.5039 9.61957 6.61005C10.5663 6.35472 11.6479 6.21988 12.8586 6.21988C14.075 6.21988 15.1595 6.36046 16.1149 6.61866C16.439 6.37193 18.0457 5.21861 19.5949 5.35919C19.6781 5.5801 20.3035 7.03179 19.7527 8.74455C20.6822 9.80032 21.1556 11.1172 21.1556 12.5402C21.1556 15.4722 19.4629 17.9367 15.4177 18.6482C15.7642 18.9889 16.0393 19.3953 16.227 19.8435C16.4147 20.2918 16.5111 20.7729 16.5108 21.2589V24.4865C16.5337 24.7447 16.5108 25 16.9411 25C22.022 23.2872 25.6799 18.4875 25.6799 12.8328C25.6799 5.74076 19.9306 1.07431e-06 12.8414 1.07431e-06Z" fill="currentColor"/>
</symbol><symbol id="gmail" viewBox="0 0 512 512"><g id="_x31_12-gmail_x2C__email_x2C__mail"><g><g><g><rect height="358.87" style="fill:#F1F5F7;" width="357.904" x="77.045" y="76.565"/><path d="M256.002,293.738l178.947,141.697v-279.74L256.002,293.738z M256.002,293.738" style="fill:#DCE6EA;"/><path d="M449.861,76.565h-14.912L256.002,218.26L77.045,76.565H62.134      c-24.693,0-44.737,20.094-44.737,44.858v269.152c0,24.759,20.044,44.859,44.737,44.859h14.911v-279.74l178.957,138.014      l178.947-138.047v279.773h14.912c24.699,0,44.742-20.101,44.742-44.859V121.424C494.604,96.66,474.561,76.565,449.861,76.565      L449.861,76.565z M449.861,76.565" style="fill:#F84437;"/></g></g></g></g><g id="Layer_1"/></symbol><symbol id="mail" viewBox="0 0 128 128">
<g><circle cx="64" cy="64" r="64" fill="currentColor"/></g><g><g><path d="M64,28" fill="#1a1a1a"/></g></g><g><g><path d="M64,72.4l38.2-32.7c-0.6-0.4-1.4-0.7-2.2-0.7H28c-0.8,0-1.6,0.3-2.2,0.7L64,72.4z" fill="#1a1a1a"/></g><g><path d="M66.6,75.4c-1.5,1.3-3.7,1.3-5.2,0L24,43.5V85c0,2.2,1.8,4,4,4h72c2.2,0,4-1.8,4-4V43.4L66.6,75.4z" fill="#1a1a1a"/></g></g></symbol><symbol id="telegram" viewBox="0 0 215 215">
<g id="Telegram">
<path d="M554,103.2c0-48.65,0-73,15.11-88.09S608.55,0,657.2,0h8.6c48.65,0,73,0,88.09,15.11S769,54.55,769,103.2v8.6c0,48.65,0,73-15.11,88.09S714.45,215,665.8,215h-8.6c-48.65,0-73,0-88.09-15.11S554,160.45,554,111.8Z" transform="translate(-554)" fill="currentColor"/>
<path data-name="Telegram" d="M598.29,105q51.57-22.47,68.78-29.63c32.76-13.63,39.56-16,44-16.07a7.7,7.7,0,0,1,4.57,1.37,5,5,0,0,1,1.68,3.19,21,21,0,0,1,.2,4.65c-1.78,18.65-9.46,63.91-13.37,84.79-1.65,8.84-4.9,11.81-8.06,12.1-6.85.63-12.05-4.53-18.68-8.88-10.38-6.8-16.25-11-26.32-17.68-11.65-7.67-4.1-11.89,2.54-18.78,1.74-1.81,31.91-29.26,32.5-31.75a2.41,2.41,0,0,0-.55-2.08,2.68,2.68,0,0,0-2.44-.24q-1.56.36-49.75,32.88-7.07,4.86-12.79,4.73c-4.22-.09-12.32-2.38-18.34-4.34-7.38-2.4-13.25-3.67-12.74-7.75Q589.91,108.31,598.29,105Z" transform="translate(-554)" fill="#1a1a1a"/>
</g>
</symbol></svg>